<svg xmlns="http://www.w3.org/2000/svg" viewBox="0 0 160 36" fill="none">
  <defs>
    <linearGradient id="g" x1="4" y1="6" x2="30" y2="30" gradientUnits="userSpaceOnUse">
      <stop stop-color="#b86bff"/>
      <stop offset="1" stop-color="#7f5dff"/>
    </linearGradient>
  </defs>
  <rect x="4" y="6" width="28" height="24" rx="7" fill="url(#g)"/>
  <path d="M11 13.5c0-1.4 1.1-2.5 2.5-2.5h9.5v3.2H14c-.4 0-.7.3-.7.7 0 .4.3.7.7.7h6.6c1.4 0 2.5 1.1 2.5 2.5v.2c0 1.4-1.1 2.5-2.5 2.5h-6.8v2.5h-2.8v-3.3c0-1.3 1.1-2.4 2.4-2.4H20c.4 0 .7-.3.7-.7 0-.4-.3-.7-.7-.7h-6.5a2.5 2.5 0 01-2.5-2.5z" fill="#fcfbff"/>
  <text x="40" y="20" font-family="Inter, system-ui, -apple-system, Segoe UI, Roboto, Helvetica, Arial, sans-serif" font-size="16" font-weight="700" fill="#f7f8fd">SnelDocs</text>
  <text x="40" y="30" font-family="Inter, system-ui, -apple-system, Segoe UI, Roboto, Helvetica, Arial, sans-serif" font-size="10" font-weight="600" fill="#b4b9c8">v1.0.0</text>
</svg>
